<mxfile host="app.diagrams.net" modified="2021-09-06T17:30:36.743Z" agent="5.0 (Windows)" etag="Inugn2-JmhvwIVrTPuRO" version="15.0.6" type="github">
  <diagram id="C5RBs43oDa-KdzZeNtuy" name="Page-1">
    <mxGraphModel dx="1206" dy="790" grid="1" gridSize="10" guides="1" tooltips="1" connect="1" arrows="1" fold="1" page="1" pageScale="1" pageWidth="827" pageHeight="1169" math="0" shadow="0">
      <root>
        <mxCell id="WIyWlLk6GJQsqaUBKTNV-0" />
        <mxCell id="WIyWlLk6GJQsqaUBKTNV-1" parent="WIyWlLk6GJQsqaUBKTNV-0" />
        <mxCell id="WN-bvlNBx2fETFW08M-U-3" value="" style="edgeStyle=orthogonalEdgeStyle;rounded=0;orthogonalLoop=1;jettySize=auto;html=1;" edge="1" parent="WIyWlLk6GJQsqaUBKTNV-1">
          <mxGeometry relative="1" as="geometry">
            <mxPoint x="220" y="120" as="sourcePoint" />
            <mxPoint x="220" y="150" as="targetPoint" />
          </mxGeometry>
        </mxCell>
        <mxCell id="WN-bvlNBx2fETFW08M-U-21" value="" style="edgeStyle=orthogonalEdgeStyle;rounded=0;orthogonalLoop=1;jettySize=auto;html=1;" edge="1" parent="WIyWlLk6GJQsqaUBKTNV-1" target="WN-bvlNBx2fETFW08M-U-4">
          <mxGeometry relative="1" as="geometry">
            <mxPoint x="220" y="200" as="sourcePoint" />
          </mxGeometry>
        </mxCell>
        <mxCell id="WN-bvlNBx2fETFW08M-U-8" value="" style="edgeStyle=orthogonalEdgeStyle;rounded=0;orthogonalLoop=1;jettySize=auto;html=1;" edge="1" parent="WIyWlLk6GJQsqaUBKTNV-1" source="WN-bvlNBx2fETFW08M-U-4" target="WN-bvlNBx2fETFW08M-U-7">
          <mxGeometry relative="1" as="geometry" />
        </mxCell>
        <mxCell id="WN-bvlNBx2fETFW08M-U-4" value="&lt;div&gt;Find x in the 1st equation&lt;/div&gt;&lt;div&gt;x=10-y&lt;br&gt;&lt;/div&gt;" style="rounded=0;whiteSpace=wrap;html=1;" vertex="1" parent="WIyWlLk6GJQsqaUBKTNV-1">
          <mxGeometry x="160" y="240" width="120" height="60" as="geometry" />
        </mxCell>
        <mxCell id="WN-bvlNBx2fETFW08M-U-10" value="" style="edgeStyle=orthogonalEdgeStyle;rounded=0;orthogonalLoop=1;jettySize=auto;html=1;" edge="1" parent="WIyWlLk6GJQsqaUBKTNV-1" source="WN-bvlNBx2fETFW08M-U-7" target="WN-bvlNBx2fETFW08M-U-9">
          <mxGeometry relative="1" as="geometry" />
        </mxCell>
        <mxCell id="WN-bvlNBx2fETFW08M-U-7" value="&lt;div&gt;Replace x in the 2nd equation&lt;/div&gt;&lt;div&gt;10-y-y=6&lt;br&gt;&lt;/div&gt;" style="whiteSpace=wrap;html=1;rounded=0;" vertex="1" parent="WIyWlLk6GJQsqaUBKTNV-1">
          <mxGeometry x="160" y="340" width="120" height="60" as="geometry" />
        </mxCell>
        <mxCell id="WN-bvlNBx2fETFW08M-U-12" value="" style="edgeStyle=orthogonalEdgeStyle;rounded=0;orthogonalLoop=1;jettySize=auto;html=1;" edge="1" parent="WIyWlLk6GJQsqaUBKTNV-1" source="WN-bvlNBx2fETFW08M-U-9" target="WN-bvlNBx2fETFW08M-U-11">
          <mxGeometry relative="1" as="geometry" />
        </mxCell>
        <mxCell id="WN-bvlNBx2fETFW08M-U-9" value="Solve the equation to find y value&lt;div&gt;y=2&lt;br&gt;&lt;/div&gt;" style="whiteSpace=wrap;html=1;rounded=0;" vertex="1" parent="WIyWlLk6GJQsqaUBKTNV-1">
          <mxGeometry x="160" y="440" width="120" height="60" as="geometry" />
        </mxCell>
        <mxCell id="WN-bvlNBx2fETFW08M-U-14" value="" style="edgeStyle=orthogonalEdgeStyle;rounded=0;orthogonalLoop=1;jettySize=auto;html=1;" edge="1" parent="WIyWlLk6GJQsqaUBKTNV-1" source="WN-bvlNBx2fETFW08M-U-11" target="WN-bvlNBx2fETFW08M-U-13">
          <mxGeometry relative="1" as="geometry" />
        </mxCell>
        <mxCell id="WN-bvlNBx2fETFW08M-U-11" value="&lt;div&gt;Replace the y value in the 1st (or 2nd) equation&lt;/div&gt;&lt;div&gt;x+2=10&lt;br&gt;&lt;/div&gt;" style="whiteSpace=wrap;html=1;rounded=0;" vertex="1" parent="WIyWlLk6GJQsqaUBKTNV-1">
          <mxGeometry x="360" y="440" width="120" height="60" as="geometry" />
        </mxCell>
        <mxCell id="WN-bvlNBx2fETFW08M-U-16" value="" style="edgeStyle=orthogonalEdgeStyle;rounded=0;orthogonalLoop=1;jettySize=auto;html=1;" edge="1" parent="WIyWlLk6GJQsqaUBKTNV-1" source="WN-bvlNBx2fETFW08M-U-13" target="WN-bvlNBx2fETFW08M-U-15">
          <mxGeometry relative="1" as="geometry" />
        </mxCell>
        <mxCell id="WN-bvlNBx2fETFW08M-U-13" value="&lt;div&gt;Solve the equation to find x value&lt;/div&gt;&lt;div&gt;x=8&lt;br&gt;&lt;/div&gt;" style="whiteSpace=wrap;html=1;rounded=0;" vertex="1" parent="WIyWlLk6GJQsqaUBKTNV-1">
          <mxGeometry x="360" y="555" width="120" height="60" as="geometry" />
        </mxCell>
        <mxCell id="WN-bvlNBx2fETFW08M-U-15" value="End" style="ellipse;whiteSpace=wrap;html=1;rounded=0;" vertex="1" parent="WIyWlLk6GJQsqaUBKTNV-1">
          <mxGeometry x="360" y="660" width="120" height="60" as="geometry" />
        </mxCell>
        <mxCell id="WN-bvlNBx2fETFW08M-U-19" value="Start" style="ellipse;whiteSpace=wrap;html=1;" vertex="1" parent="WIyWlLk6GJQsqaUBKTNV-1">
          <mxGeometry x="160" y="40" width="120" height="80" as="geometry" />
        </mxCell>
        <mxCell id="WN-bvlNBx2fETFW08M-U-22" value="&lt;div&gt;x+y=10&lt;/div&gt;&lt;div&gt;x-y=6&lt;br&gt;&lt;/div&gt;" style="shape=parallelogram;perimeter=parallelogramPerimeter;whiteSpace=wrap;html=1;fixedSize=1;" vertex="1" parent="WIyWlLk6GJQsqaUBKTNV-1">
          <mxGeometry x="160" y="150" width="120" height="60" as="geometry" />
        </mxCell>
      </root>
    </mxGraphModel>
  </diagram>
</mxfile>
